<svg width="25" height="17" xmlns="http://www.w3.org/2000/svg"><path d="M0 2C0 .895.89 0 2.004 0h20.992C24.103 0 25 .89 25 2v13c0 1.105-.89 2-2.004 2H2.004A1.998 1.998 0 0 1 0 15V2zm6.543 3.738c-.516.703-.774 1.682-.774 2.939 0 2.613.987 3.92 2.96 3.92.829 0 1.832-.206 3.01-.617v1.09c0 .55-.433 1.113-.963 1.246 0 0-1.086.35-2.28.35-1.716 0-3.028-.518-3.937-1.552-.909-1.034-1.363-2.519-1.363-4.453 0-1.22.223-2.287.67-3.203.446-.917 1.087-1.62 1.923-2.109.836-.49 1.817-.734 2.94-.734 1.146 0 2.513.519 2.513.519.52.17.777.716.57 1.235l-.436 1.093a13.4 13.4 0 0 0-1.331-.546 3.993 3.993 0 0 0-1.315-.232c-.942 0-1.67.351-2.187 1.054zm10.197 0c-.516.703-.774 1.682-.774 2.939 0 2.613.987 3.92 2.96 3.92.829 0 3.01-.617 3.01-.617v1.09c0 .55-.433 1.113-.963 1.246 0 0-1.087.35-2.28.35-1.716 0-3.028-.518-3.937-1.552-.91-1.034-1.364-2.519-1.364-4.453 0-1.22.224-2.287.67-3.203.446-.917 1.088-1.62 1.924-2.109.836-.49 1.816-.734 2.94-.734 1.146 0 2.513.519 2.513.519.52.17.776.718.621 1.106 0 0-.056.14 0 0l-.488 1.222s-.884-.39-1.33-.546a3.993 3.993 0 0 0-1.316-.232c-.94 0-1.67.351-2.186 1.054z" fill="#FFF" opacity=".9" fill-rule="evenodd"/></svg>