<svg width="22" height="21" xmlns="http://www.w3.org/2000/svg"><path d="M12.137 8.778a1.003 1.003 0 0 1 .002-1.417l3.529-3.529 2.4 2.401-3.528 3.529a1 1 0 0 1-1.417.002l-.986-.986zm8.614-2.114c-.155 1.088-.92 1.33-1.696.556l-4.374-4.374c-.78-.781-.53-1.54.556-1.696L19.7.512c1.088-.155 1.844.602 1.689 1.689l-.638 4.463zm-10.578 6.05c.39.391.389 1.026-.002 1.417L6.64 17.66l-2.4-2.401L7.77 11.73a1 1 0 0 1 1.417-.002l.986.986zm-8.614 2.114c.155-1.088.92-1.33 1.696-.555l4.373 4.373c.781.782.531 1.541-.555 1.696l-4.463.638C1.522 21.135.766 20.378.92 19.29l.638-4.463z" fill="#FFF" opacity=".9" fill-rule="evenodd"/></svg>