<svg width="23" height="23" xmlns="http://www.w3.org/2000/svg"><path d="M1.063 21.108a.996.996 0 0 1-.001-1.413l4.532-4.532 2.4 2.4-4.531 4.532a.997.997 0 0 1-1.414 0l-.986-.987zm9.614-3.114c-.156 1.088-.92 1.331-1.696.556l-4.374-4.374c-.781-.78-.53-1.54.556-1.696l4.463-.637c1.088-.156 1.844.602 1.688 1.689l-.637 4.462zm11.452-15.98a.996.996 0 0 1 0 1.414L17.599 7.96l-2.4-2.4 4.53-4.532a.997.997 0 0 1 1.415 0l.986.987zM12.515 5.13c.155-1.088.92-1.331 1.696-.556l4.373 4.374c.782.78.531 1.54-.555 1.695l-4.463.638c-1.088.155-1.844-.602-1.689-1.689l.638-4.462z" fill="#FFF" fill-rule="evenodd"/></svg>