<?xml version="1.0" encoding="utf-8"?>
<!-- Generator: Adobe Illustrator 23.0.0, SVG Export Plug-In . SVG Version: 6.00 Build 0)  -->
<svg version="1.1" id="Ebene_1" xmlns="http://www.w3.org/2000/svg" xmlns:xlink="http://www.w3.org/1999/xlink" x="0px" y="0px"
	 viewBox="0 0 679.56 265.5" style="enable-background:new 0 0 679.56 265.5;" xml:space="preserve">
<style type="text/css">
	.st0{fill:url(#XMLID_2_);}
	.st1{fill:url(#XMLID_3_);}
	.st2{fill:url(#XMLID_6_);}
	.st3{fill:url(#XMLID_7_);}
	.st4{fill:url(#XMLID_9_);}
	.st5{fill:url(#XMLID_10_);}
	.st6{fill:url(#XMLID_11_);}
	.st7{fill:url(#XMLID_12_);}
	.st8{fill:url(#XMLID_13_);}
	.st9{fill:url(#XMLID_14_);}
	.st10{fill:url(#XMLID_15_);}
	.st11{fill:url(#XMLID_16_);}
</style>
<g id="XMLID_5_">
	<linearGradient id="XMLID_2_" gradientUnits="userSpaceOnUse" x1="73.8322" y1="103.9196" x2="73.8322" y2="211.9381">
		<stop  offset="0" style="stop-color:#E6332A"/>
		<stop  offset="1" style="stop-color:#BE1622"/>
	</linearGradient>
	<path id="XMLID_8_" class="st0" d="M125.78,112.21c-61.58,9.1-103.9,18.07-103.9,18.07s41.61-3.8,99.21-7.95L125.78,112.21z"/>
	<linearGradient id="XMLID_3_" gradientUnits="userSpaceOnUse" x1="573.2979" y1="103.9196" x2="573.2979" y2="211.9381">
		<stop  offset="0" style="stop-color:#E6332A"/>
		<stop  offset="1" style="stop-color:#BE1622"/>
	</linearGradient>
	<path id="XMLID_28_" class="st1" d="M483.38,116.03c95.17,5.47,179.83,14.25,179.83,14.25s-75.09-18-173.43-28.89
		c-0.52,1.86-1.41,4.07-2.7,6.7L483.38,116.03z"/>
	<linearGradient id="XMLID_6_" gradientUnits="userSpaceOnUse" x1="233.4524" y1="103.9196" x2="233.4524" y2="211.9381">
		<stop  offset="0" style="stop-color:#E6332A"/>
		<stop  offset="1" style="stop-color:#BE1622"/>
	</linearGradient>
	<path id="XMLID_31_" class="st2" d="M379.73,167.31c9.07-7.77,20.38-13.22,33.62-16.19l7.36-1.7c4.81-1.17,7.15-3.52,7.15-7.18
		c0-2.2-0.74-3.9-2.25-5.18c-1.54-1.31-3.65-1.97-6.26-1.97c-6.42,0-14.02,1.6-22.59,4.75c-8.6,3.16-16.42,7.29-23.26,12.27
		c-4.46,3.27-8.47,6.76-11.93,10.36c-3.45,3.6-6.36,7.31-8.65,11.04c-2.29,3.73-4.12,7.64-5.45,11.63c-0.34,1.01-0.64,2.04-0.9,3.07
		l-0.1,0.4l-0.35,0.21c-0.6,0.36-1.22,0.74-1.91,1.16c-6.51,4.09-13.19,7.58-19.84,10.38c-6.83,2.87-11.96,4.27-15.68,4.27
		c-1.96,0-3.58-0.49-4.81-1.46c-1.3-1.02-1.97-2.43-1.97-4.18c0-2.74,2.41-6.24,7.35-10.71l8.94-8.26
		c6.4-5.95,10.9-10.88,13.38-14.65c2.41-3.67,3.63-7.48,3.63-11.34c0-4.79-1.75-8.55-5.36-11.52c-3.61-2.97-8.49-4.47-14.49-4.47
		c-0.77,0-1.54,0.04-2.28,0.11l-1.68,0.16l1.01-2.34c1.75-3.73,2.64-6.41,2.64-7.99c0-2.14-0.71-3.82-2.17-5.15
		c-1.48-1.35-3.27-2-5.44-2c-2.32,0-4.09,0.63-5.42,1.92c-1.42,1.38-3.25,4.43-5.46,9.06l-6.57,13.93
		c-2.35,5.16-2.85,7.54-2.85,8.64c0,2.15,0.69,3.86,2.12,5.22c1.44,1.38,3.24,2.05,5.48,2.05c2.18,0,3.96-0.66,5.44-2.01
		c1.55-1.41,3.11-3.89,4.63-7.36l0.27-0.62l0.67,0.02c3.43,0.08,5.83,0.49,7.33,1.24c1.18,0.59,2.59,1.86,2.59,4.52
		c0,1.67-0.59,3.22-1.77,4.61c-1.06,1.26-4.15,4.14-9.45,8.83c-6.25,5.61-11.22,10.32-14.77,14l-0.17,0.18l-0.23,0.08
		c-2,0.66-4.83,2.11-8.41,4.31c-7.58,4.55-15.44,8.31-23.35,11.19c-7.96,2.9-14.46,4.37-19.31,4.37c-5.6,0-6.78-2.82-6.78-5.19
		c0-2.19,1.05-4.18,3.13-5.92c1.91-1.6,5.02-3.38,9.23-5.3l10.2-4.53c3.54-1.54,5.87-2.57,7.12-3.16c2.6-1.08,4.43-2.27,5.49-3.53
		c1.02-1.22,1.52-2.66,1.52-4.4c0-1.93-0.68-3.55-2.09-4.96c-1.4-1.4-2.95-2.08-4.73-2.08c-1.6,0-5.48,0.93-14.87,5.34l-0.95,0.45
		l-0.4-0.97c-0.73-1.77-1.09-3.35-1.09-4.68c0-2.15,0.8-4.06,2.38-5.68c1.5-1.54,3.91-3.05,7.38-4.63l7.83-3.4
		c5.98-2.62,9.67-4.35,10.98-5.15c1.79-1.35,2.69-3.09,2.69-5.26c0-2.07-0.69-3.72-2.12-5.04c-1.45-1.34-3.21-2-5.38-2
		c-1.54,0-4.27,0.69-8.11,2.04c-3.91,1.38-8.05,3.14-12.29,5.22c-12.86,6.35-19.38,14.51-19.38,24.25c0,3.59,1.03,7.36,3.06,11.2
		l0.47,0.89l-0.89,0.47c-3.75,1.97-6.94,4.15-9.48,6.47l-0.51,0.46l-0.62-0.31c-0.97-0.49-1.94-0.74-2.89-0.74
		c-1.98,0-4.2,0.78-6.59,2.33l-5.89,3.85c-4.93,3.11-9.8,5.91-14.47,8.32c-3.95,2.13-7.03,3.17-9.41,3.17
		c-2.65,0-4.17-1.48-4.17-4.06c0-2.05,1.22-5.71,3.71-11.18l16.02-34.11h13.89c6.17,0,8.71-0.62,9.75-1.14
		c3.07-1.43,4.54-3.77,4.54-7.15c0-2.44-0.8-4.1-2.46-5.09c-1.8-1.07-5.13-1.62-9.91-1.62h-8.85l10.3-21.74l0.27-0.02l1.05-0.06
		l0.09,0c47.98-2.62,97.66-4.56,139.72-4.56c33.04,0,69.2,1.2,104.77,2.98l6.61-14.14c0.26-0.55,0.52-1.07,0.77-1.58
		c-36.37-3.46-75.21-5.77-114.15-5.77c-69.68,0-143.13,7.39-203.08,15.56l-5.54,11.89c15.55-1.06,31.92-2.12,48.69-3.12
		c0.38-0.02,0.76-0.04,1.14-0.07c0.01,0,0.02,0,0.03,0l-0.03-0.01h0l1.07-0.06l-9.65,20.69h-51.59l8.05-17.28l5.46-11.73l1.08-2.32
		c2.45-5.17,2.96-7.62,2.96-8.75c0-2.15-0.69-3.83-2.12-5.16c-1.45-1.34-3.24-2-5.49-2c-2.32,0-4.13,0.65-5.54,1.99
		c-1.49,1.42-3.32,4.44-5.45,8.99l-4.62,9.98l-4.77,10.3l-7.41,15.98h-13.1c-4.82,0-8.12,0.36-9.81,1.06
		c-1.38,0.66-2.46,1.63-3.27,2.94c-0.81,1.32-1.21,2.65-1.21,4.06c0,2.51,1.03,4.34,3.13,5.6c1.03,0.61,3.46,1.33,9.23,1.33h8.03
		l-14.97,32.01l-0.54,0.07c-0.84,0.11-1.64,0.39-2.38,0.82c-1.13,0.65-3.51,2.35-7.1,5.03c-6.19,4.68-10.62,7.85-13.16,9.4
		c-2.72,1.66-4.94,2.47-6.81,2.47c-3.2,0-4.96-1.8-4.96-5.08c0-1.68,0.96-4.42,2.94-8.38c0.6-1.2,1.19-2.39,1.75-3.56
		c0.56-1.17,1.11-2.31,1.64-3.44l3.74-7.82c1.89-4,2.85-6.94,2.85-8.74c0-1.83-0.67-3.31-2.04-4.52c-1.41-1.24-3.16-1.84-5.34-1.84
		c-2.47,0-4.48,0.8-6.15,2.43c-1.76,1.72-3.72,4.9-5.85,9.45l-3.62,7.65c-0.12,0.19-0.73,1.45-3.28,7.38l-1.17,2.74
		c-4.18,4.94-7.8,8.56-10.76,10.75c-3.07,2.27-6.11,3.42-9.03,3.42c-2.2,0-3.98-0.83-5.26-2.48c-1.23-1.57-1.85-3.66-1.85-6.22
		c0-4.49,1.9-9.61,5.66-15.22c3.71-5.54,8.73-10.64,14.91-15.15c4.94-3.65,10.14-6.64,15.43-8.89c5.29-2.24,11.55-4.04,18.62-5.33
		c4.13-0.72,7.01-1.71,8.57-2.92c1.46-1.13,2.16-2.74,2.16-4.93c0-3.07-0.96-7.16-9.31-7.16c-3.16,0-7.04,0.53-11.56,1.56
		c-4.53,1.04-9.23,2.51-13.96,4.37c-4.72,1.86-8.92,3.89-12.48,6.04c-10.72,6.1-19.43,13.89-25.92,23.16
		C3.27,179.45,0,188.63,0,197.52c0,6.73,1.87,12.16,5.57,16.14c3.67,3.96,8.74,5.97,15.07,5.97c3.7,0,7.17-0.66,10.32-1.96
		c3.19-1.32,7.29-3.9,12.17-7.68l1.31-1.02l0.28,1.64c1.05,6.07,4.91,9.03,11.81,9.03c4.45,0,8.95-0.91,13.39-2.7
		c2.67-1.08,5.86-2.73,9.49-4.9l2.8-1.68l-8.24,17.61c-2.68,5.88-4.46,10.17-5.28,12.74c-0.79,2.5-1.2,5.04-1.2,7.57
		c0,5.04,1.69,9.08,5.18,12.35c3.46,3.24,7.93,4.88,13.3,4.88c6.57,0,13.34-2.23,20.13-6.64c6.85-4.45,13.07-10.37,18.49-17.6
		c5.43-7.25,9.88-15.61,13.23-24.83c3.34-9.21,5.04-18.51,5.04-27.64c0-11.48-3.01-22.99-8.95-34.19l-0.78-1.47h45.25l-15.05,32.23
		c-3.77,8.13-5.68,14.66-5.68,19.4c0,4.65,1.48,8.2,4.53,10.86c3.04,2.66,7.24,4,12.48,4c7.71,0,18.75-4.11,32.8-12.21
		c1.71-0.98,3.34-1.95,4.86-2.9l1.25-0.78l0.27,1.45c0.71,3.86,2.59,7.07,5.58,9.52c3.99,3.27,9.62,4.93,16.75,4.93
		c6.07,0,12.48-0.9,19.05-2.68c6.59-1.79,14.18-4.74,22.54-8.77c1.07-0.54,2.1-1.06,3.08-1.58l1.06-0.55l0.36,1.14
		c0.94,2.98,2.73,5.52,5.33,7.56c4.14,3.24,9.94,4.89,17.22,4.89c6.59,0,13.36-1.07,20.15-3.18c6.44-2.01,13.56-5.26,21.18-9.69
		l0.95-0.55l0.46,0.99c1,2.15,2.34,3.99,3.98,5.49c4.05,3.7,10.02,5.57,17.73,5.57h8.27c4.98,0,8.37,0.56,10.36,1.72
		c2.13,1.24,3.21,3.4,3.21,6.41c0,3.83-2.1,6.6-6.24,8.24c-3.89,1.53-10.11,2.28-19,2.28h-33.07c-5.04,0-8.4,0.39-9.99,1.15
		c-1.42,0.67-2.5,1.66-3.31,3.01c-0.81,1.34-1.22,2.73-1.22,4.13c0,2.58,1.02,4.41,3.11,5.58c0.96,0.55,2.07,0.93,3.3,1.13
		c1.3,0.22,3.38,0.33,6.18,0.33h34.43c8.29,0,14.59-0.3,18.72-0.9c4.06-0.59,7.64-1.66,10.62-3.18c4.29-2.11,7.77-5.21,10.38-9.23
		c2.6-4.01,3.92-8.45,3.92-13.22c0-4.37-1.61-8.78-4.79-13.11c-2.14-2.88-3.14-4.9-3.14-6.37c0-1.43,0.62-3.56,1.89-6.51l1.6-3.32
		l8.83-18.9c0.27-0.49,0.88-1.97,2.45-6.58c1.04-3.21,1.19-4.37,1.19-4.77c0-2.15-0.56-3.73-1.73-4.82
		c-1.18-1.11-2.77-1.65-4.86-1.65c-2.35,0-4.23,0.61-5.76,1.87c-1.58,1.3-3.23,3.65-4.89,6.98l-2.03,4.28l-12.85,27.54l-0.37,0.15
		c-4.63,1.85-8.57,2.79-11.7,2.79c-2.76,0-5.09-0.94-6.94-2.79c-1.85-1.85-2.78-4.07-2.78-6.6c0-3.88,1.6-8.31,4.75-13.17
		C370.92,175.94,374.92,171.43,379.73,167.31z M120.05,214.37c-3.76,9.24-8.8,17.43-14.96,24.36c-6.46,7.09-11.52,10.53-15.47,10.53
		c-2.76,0-4.28-1.56-4.28-4.4c0-1.11,0.3-2.46,0.91-4.14c0.58-1.57,2.05-4.9,4.39-9.88l30.2-64.86l0.86,2.16
		c1.45,3.66,2.49,7.09,3.11,10.2c0.61,3.11,0.93,6.4,0.93,9.77C125.73,196.29,123.82,205.12,120.05,214.37z"/>
	<linearGradient id="XMLID_7_" gradientUnits="userSpaceOnUse" x1="481.1904" y1="103.9196" x2="481.1904" y2="211.9381">
		<stop  offset="0" style="stop-color:#E6332A"/>
		<stop  offset="1" style="stop-color:#BE1622"/>
	</linearGradient>
	<path id="XMLID_35_" class="st3" d="M527.23,138.9c-3.74-2.23-8.21-3.34-13.42-3.34c-5.59,0-11.08,1.53-16.48,4.59
		c-5.4,3.06-10.25,7.34-14.55,12.86c-4.3,5.51-7.65,11.63-10.02,18.35c-1.96,5.55-3.1,11.2-3.45,16.95
		c-1.06,0.8-2.23,1.71-3.52,2.76c-5.06,3.93-8.89,6.67-11.5,8.21c-2.61,1.55-4.85,2.32-6.74,2.32c-2.34,0-3.51-1.21-3.51-3.62
		c0-1.43,0.75-3.77,2.27-7.02l34.93-75.04l4.03-8.67c1.18-2.4,2-4.41,2.5-6.08c0.36-1.22,0.56-2.26,0.56-3.09
		c0-2.42-0.81-4.38-2.43-5.89c-1.62-1.51-3.68-2.27-6.17-2.27c-2.57,0-4.61,0.74-6.12,2.21c-1.26,1.23-2.78,3.61-4.56,7.11
		c-0.36,0.7-0.72,1.44-1.1,2.23l-6.26,13.39l-32.48,69.52c-1.02,2.23-1.89,4.27-2.62,6.12c-0.18,0.46-0.35,0.91-0.52,1.35
		c-0.49,1.32-0.9,2.53-1.22,3.63c-0.22,0.74-0.41,1.46-0.57,2.17c-0.16,0.71-0.3,1.4-0.41,2.08c-0.22,1.36-0.33,2.66-0.33,3.91
		c0,4.98,1.64,9.06,4.93,12.23c2.05,1.98,4.5,3.35,7.33,4.09c1.13,0.3,2.33,0.5,3.59,0.59c0.63,0.05,1.27,0.07,1.94,0.07
		c9.09,0,19.48-4.41,31.16-13.22c0.99,1.96,2.17,3.78,3.61,5.4c4.61,5.21,10.72,7.82,18.35,7.82c7.4,0,14.56-2.68,21.46-8.04
		c6.91-5.36,12.46-12.46,16.65-21.29c4.19-8.83,6.29-18.05,6.29-27.64c0-5.89-1-10.93-3-15.12
		C533.84,144.34,530.97,141.13,527.23,138.9z M513.02,186.42c-5.29,10.5-10.5,15.74-15.63,15.74c-2.49,0-4.47-0.89-5.95-2.66
		c-1.47-1.77-2.21-4.21-2.21-7.31c0-5.81,1.77-12.8,5.32-20.95c2.72-6.04,5.49-10.53,8.33-13.48c2.83-2.94,5.76-4.42,8.78-4.42
		c2.49,0,4.38,0.87,5.66,2.61c1.28,1.74,1.93,4.27,1.93,7.59C519.25,170.48,517.17,178.11,513.02,186.42z"/>
	<linearGradient id="XMLID_9_" gradientUnits="userSpaceOnUse" x1="611.4513" y1="103.9196" x2="611.4514" y2="211.9381">
		<stop  offset="0" style="stop-color:#E6332A"/>
		<stop  offset="1" style="stop-color:#BE1622"/>
	</linearGradient>
	<path id="XMLID_36_" class="st4" d="M678.34,185.91c-1.32-1.4-2.96-2.1-4.93-2.1c-1.36,0-3.62,0.76-6.8,2.26
		c-2.95,1.51-5.7,2.27-8.27,2.27c-2.95,0-5.44-0.91-7.48-2.72c-2.04-1.81-3.06-4-3.06-6.57c0-1.89,0.83-4.49,2.49-7.82
		c0.15-0.23,0.32-0.57,0.51-1.02c0.19-0.45,0.32-0.75,0.4-0.91l7.7-16.42c1.96-4.23,2.94-7.29,2.94-9.18c0-2.42-0.83-4.38-2.49-5.89
		c-1.66-1.51-3.7-2.27-6.12-2.27c-2.57,0-4.64,0.79-6.23,2.38c-1.59,1.59-3.44,4.64-5.55,9.17l-9.85,21.18
		c-2.64,5.74-4.61,9.82-5.89,12.23c-2.27,4.53-4.57,8.46-6.91,11.78c-4.61,6.65-8.91,9.97-12.91,9.97c-2.87,0-4.3-1.51-4.3-4.53
		c0-2.72,1.51-7.4,4.53-14.05l14.39-30.81c2.04-4.38,3.06-7.44,3.06-9.18c0-2.42-0.83-4.38-2.49-5.89c-1.66-1.51-3.7-2.27-6.12-2.27
		c-2.57,0-4.63,0.76-6.17,2.27c-1.55,1.51-3.42,4.61-5.61,9.29l-14.5,31.15c-2.12,4.38-3.62,7.97-4.53,10.76l-0.57,0.57
		c-7.78,8.46-13.67,12.69-17.67,12.69c-2.34,0-3.51-1.32-3.51-3.96c0-1.36,0.49-3.17,1.47-5.44c0.38-0.91,0.74-1.79,1.08-2.66
		c0.34-0.87,0.66-1.6,0.96-2.21l16.42-35.11c1.96-4.3,2.95-7.36,2.95-9.18c0-2.42-0.83-4.38-2.49-5.89
		c-1.66-1.51-3.7-2.27-6.12-2.27c-2.57,0-4.63,0.77-6.17,2.32c-1.55,1.55-3.42,4.63-5.61,9.23l-15.06,32.28
		c-4.83,10.42-7.25,18.2-7.25,23.33c0,5.29,1.62,9.59,4.87,12.91c3.25,3.32,7.55,4.98,12.91,4.98c8.16,0,15.86-3.44,23.11-10.31
		c3.47,6.87,9.7,10.31,18.69,10.31c4.23,0,8.29-0.85,12.18-2.55c3.89-1.7,7.8-4.34,11.72-7.93c3.93-3.59,7.74-7.95,11.44-13.08
		c4.98,5.51,11.7,8.27,20.16,8.27c6.04,0,11.33-1.43,15.86-4.3c4.53-2.87,6.8-6.27,6.8-10.19
		C680.32,188.95,679.66,187.3,678.34,185.91z"/>
</g>
<g id="XMLID_4_">
	<linearGradient id="XMLID_10_" gradientUnits="userSpaceOnUse" x1="342.0858" y1="539.8229" x2="342.0858" y2="-225.3403">
		<stop  offset="0" style="stop-color:#E6332A;stop-opacity:0.2"/>
		<stop  offset="0.6188" style="stop-color:#FAC9B8;stop-opacity:0.5"/>
		<stop  offset="0.7015" style="stop-color:#FFFFFF;stop-opacity:0"/>
	</linearGradient>
	<path id="XMLID_39_" class="st5" d="M351.59,88.26L358.47,0c-5.18-0.1-10.39-0.15-15.62-0.15c-5.75,0-11.46,0.06-17.14,0.18
		L333,88.45C339.22,88.33,345.41,88.26,351.59,88.26z"/>
	
		<linearGradient id="XMLID_11_" gradientUnits="userSpaceOnUse" x1="397.8787" y1="539.8229" x2="397.8787" y2="-225.3403" gradientTransform="matrix(0.9528 0.3036 -0.3036 0.9528 22.5882 -102.7277)">
		<stop  offset="0" style="stop-color:#E6332A;stop-opacity:0.2"/>
		<stop  offset="0.6188" style="stop-color:#FAC9B8;stop-opacity:0.5"/>
		<stop  offset="0.7015" style="stop-color:#FFFFFF;stop-opacity:0"/>
	</linearGradient>
	<path id="XMLID_40_" class="st6" d="M389.44,88.9L424,3.92c-11.39-1.16-22.98-2.08-34.73-2.75L369.2,88.39
		C375.96,88.5,382.71,88.67,389.44,88.9z"/>
	
		<linearGradient id="XMLID_12_" gradientUnits="userSpaceOnUse" x1="454.9625" y1="539.8229" x2="454.9625" y2="-225.3403" gradientTransform="matrix(0.8095 0.5871 -0.5871 0.8095 83.1686 -214.029)">
		<stop  offset="0" style="stop-color:#E6332A;stop-opacity:0.2"/>
		<stop  offset="0.6188" style="stop-color:#FAC9B8;stop-opacity:0.5"/>
		<stop  offset="0.7015" style="stop-color:#FFFFFF;stop-opacity:0"/>
	</linearGradient>
	<path id="XMLID_43_" class="st7" d="M437.44,91.53l64.21-75.42c-13.34-2.88-27.1-5.42-41.24-7.57l-49.32,81.32
		C419.95,90.33,428.74,90.89,437.44,91.53z"/>
	
		<linearGradient id="XMLID_13_" gradientUnits="userSpaceOnUse" x1="454.9625" y1="539.8229" x2="454.9625" y2="-225.3403" gradientTransform="matrix(0.8095 0.5871 -0.5871 0.8095 83.1686 -214.029)">
		<stop  offset="0" style="stop-color:#E6332A;stop-opacity:0.2"/>
		<stop  offset="0.6188" style="stop-color:#FAC9B8;stop-opacity:0.5"/>
		<stop  offset="0.7015" style="stop-color:#FFFFFF;stop-opacity:0"/>
	</linearGradient>
	<path id="XMLID_42_" class="st8" d="M437.44,91.53l64.21-75.42c-13.34-2.88-27.1-5.42-41.24-7.57l-49.32,81.32
		C419.95,90.33,428.74,90.89,437.44,91.53z"/>
	
		<linearGradient id="XMLID_14_" gradientUnits="userSpaceOnUse" x1="397.8803" y1="539.8229" x2="397.8803" y2="-225.3403" gradientTransform="matrix(-0.9377 0.3036 0.2988 0.9528 656.895 -102.7277)">
		<stop  offset="0" style="stop-color:#E6332A;stop-opacity:0.2"/>
		<stop  offset="0.6188" style="stop-color:#FAC9B8;stop-opacity:0.5"/>
		<stop  offset="0.7015" style="stop-color:#FFFFFF;stop-opacity:0"/>
	</linearGradient>
	<path id="XMLID_44_" class="st9" d="M315.9,88.9L296.04,1.19c-11.57,0.67-22.98,1.57-34.19,2.72l34.35,85.82
		C302.76,89.4,309.33,89.12,315.9,88.9z"/>
	
		<linearGradient id="XMLID_15_" gradientUnits="userSpaceOnUse" x1="454.9704" y1="539.8229" x2="454.9704" y2="-225.3403" gradientTransform="matrix(-0.7967 0.5871 0.5778 0.8095 597.2755 -214.029)">
		<stop  offset="0" style="stop-color:#E6332A;stop-opacity:0.2"/>
		<stop  offset="0.6188" style="stop-color:#FAC9B8;stop-opacity:0.5"/>
		<stop  offset="0.7015" style="stop-color:#FFFFFF;stop-opacity:0"/>
	</linearGradient>
	<path id="XMLID_50_" class="st10" d="M275.2,90.92L225.96,8.43c-13.96,2.11-27.56,4.6-40.74,7.42l64.46,76.94
		C258.13,92.1,266.64,91.48,275.2,90.92z"/>
	
		<linearGradient id="XMLID_16_" gradientUnits="userSpaceOnUse" x1="454.9704" y1="539.8229" x2="454.9704" y2="-225.3403" gradientTransform="matrix(-0.7967 0.5871 0.5778 0.8095 597.2755 -214.029)">
		<stop  offset="0" style="stop-color:#E6332A;stop-opacity:0.2"/>
		<stop  offset="0.6188" style="stop-color:#FAC9B8;stop-opacity:0.5"/>
		<stop  offset="0.7015" style="stop-color:#FFFFFF;stop-opacity:0"/>
	</linearGradient>
	<path id="XMLID_49_" class="st11" d="M275.2,90.92L225.96,8.43c-13.96,2.11-27.56,4.6-40.74,7.42l64.46,76.94
		C258.13,92.1,266.64,91.48,275.2,90.92z"/>
</g>
</svg>
