<svg width="32" height="18" xmlns="http://www.w3.org/2000/svg"><path d="M14.462 16.5c0 .552-.44 1-1.001 1H11.87c-.553 0-1.001-.448-1.001-1.005v-5.327a.997.997 0 0 0-.994-1.005H5.13a.998.998 0 0 0-.994 1.005v5.327A1 1 0 0 1 3.132 17.5H1.536a1.007 1.007 0 0 1-1.004-1v-15c0-.552.442-1 1.004-1h1.596c.555 0 1.004.448 1.004.997v4.668c0 .551.442.998.994.998h4.745a.996.996 0 0 0 .994-.998V1.497c0-.55.44-.997 1-.997h1.592c.553 0 1 .455 1 1v15zm14.97-1.233c-1.593 1.489-3.893 2.233-6.9 2.233h-3.817c-.551 0-.998-.455-.998-1v-15c0-.552.455-1 1.004-1h4.333c2.776 0 4.93.733 6.466 2.198 1.534 1.465 2.302 3.511 2.302 6.14 0 2.798-.797 4.941-2.39 6.43zM28.078 8.93c0-3.65-1.613-5.477-4.838-5.477h-1.918v11.07h1.546c3.473 0 5.21-1.864 5.21-5.593z" fill="#FFF" opacity=".9" fill-rule="evenodd"/></svg>