<svg width="29" height="18" xmlns="http://www.w3.org/2000/svg"><path d="M26.432 15.267c-1.593 1.489-3.893 2.233-6.9 2.233h-3.817c-.551 0-.998-.455-.998-1v-15c0-.552.455-1 1.004-1h4.333c2.776 0 4.93.733 6.466 2.198 1.534 1.465 2.302 3.511 2.302 6.14 0 2.798-.797 4.941-2.39 6.43zM25.078 8.93c0-3.65-1.613-5.477-4.838-5.477h-1.918v11.07h1.546c3.473 0 5.21-1.864 5.21-5.593zM9.832 16.216c-1.114.86-2.662 1.29-4.647 1.29-1.828 0-3.246-.223-4.652-.886v-2.263c0-.55.41-.84.933-.648 0 0 1.002.392 1.803.596.8.204 1.533.305 2.197.305.797 0 1.409-.147 1.834-.44.426-.295.639-.732.639-1.313 0-.324-.094-.613-.281-.865-.188-.253-.463-.496-.826-.73-.364-.233-1.104-.607-2.221-1.12-1.047-.474-1.832-.93-2.356-1.368a5.172 5.172 0 0 1-1.253-1.527c-.313-.58-.47-1.26-.47-2.036 0-1.463.514-2.613 1.542-3.45C3.1.924 4.52.506 6.334.506c.89 0 1.74.102 2.548.305.809.204 2.538.86 2.538.86l-1.172 2.726c-.914-.362-1.67-.615-2.268-.758a7.548 7.548 0 0 0-1.764-.215c-.687 0-1.214.155-1.582.464-.367.309-.55.712-.55 1.21 0 .31.074.579.222.809.149.23.385.452.71.667.323.215 1.091.601 2.302 1.16 1.602.738 2.7 1.48 3.293 2.222.594.743.89 1.653.89 2.731 0 1.494-.556 2.67-1.67 3.53z" fill="#FFF" opacity=".9" fill-rule="evenodd"/></svg>