<svg version="1.1" id="Ebene_1" xmlns="http://www.w3.org/2000/svg" x="0" y="0" viewBox="-411 288.3 19 20" xml:space="preserve"><style>.st0{fill:#fff}</style><g id="State-Basics"><g id="Skin-afterglow" transform="translate(-1121 -674)"><g id="Playing-state" transform="translate(29.5 23)"><g id="Volumebutton" transform="translate(1091.5 651)"><path id="Rectangle-9-Copy" class="st0" d="M-397.7 298.3c0-1.8-.8-2.8-.8-2.8-.3-.5-.3-1.2 0-1.7s.7-.4 1 .1c0 0 1 2 1.3 3.7 0 .3.1.5.1.8-.8-.1-1.1-.1-1.6-.1zm.4 0h-.5c0 1.8-.8 2.9-.8 2.9-.3.5-.3 1.2 0 1.7s.7.4.9 0c0 0 1.4-2.8 1.3-4.6h-.9z"/><path id="Rectangle-8" class="st0" d="M-411 296.5c0-1.1.8-2 1.9-2h1.2c3.9 0 6.5-5.4 6.5-5.4.3-.5.5-.4.5.1v18c0 .5-.2.6-.5.1 0 0-3.2-5.4-6.5-5.4h-1.1c-1.1 0-2-.9-2-2v-3.4z"/></g></g></g></g></svg>